<svg width="512" height="512" viewBox="0 0 512 512" fill="none" xmlns="http://www.w3.org/2000/svg">
<path fill-rule="evenodd" clip-rule="evenodd" d="M255.448 491.272L422.992 372.656V28.6602H87.9038V372.656L255.448 491.272Z" fill="#4285F4"/>
<path d="M427.828 20.7285H84.168C74.3639 20.7285 66.416 28.6764 66.416 38.4805V46.2205C66.416 56.0247 74.3639 63.9725 84.168 63.9725H427.828C437.632 63.9725 445.58 56.0247 445.58 46.2205V38.4805C445.58 28.6764 437.632 20.7285 427.828 20.7285Z" fill="#484C56"/>
<path d="M182.739 277.232C182.739 270.83 197.899 252.464 228.218 222.137C182.739 213.375 160 204.951 160 196.863C160 187.428 161.853 180.015 165.559 174.623C169.264 168.894 172.465 166.03 175.16 166.03C177.855 166.03 179.539 166.199 180.213 166.536C180.887 166.536 189.814 170.916 206.995 179.678C224.512 188.439 234.45 192.82 236.809 192.82C237.482 192.82 237.819 191.977 237.819 190.292L234.787 129.637C234.787 124.919 236.303 121.718 239.335 120.033C242.367 118.011 247.757 117 255.505 117C263.59 117 268.98 117.842 271.676 119.527C274.707 121.212 276.392 124.413 276.729 129.131V132.164C274.707 158.448 272.855 174.454 271.17 180.183C269.823 185.912 269.149 189.45 269.149 190.798C269.149 192.146 270.328 192.82 272.686 192.82C275.044 192.82 285.151 188.607 303.005 180.183C320.86 171.422 331.303 167.041 334.335 167.041C337.367 167.041 340.736 169.737 344.441 175.128C348.147 180.52 350 187.765 350 196.863C350 201.244 347.137 204.782 341.41 207.478C342.083 206.804 332.314 208.995 312.101 214.049C292.225 219.104 281.95 221.8 281.277 222.137L282.287 223.148C310.922 255.834 325.239 274.199 325.239 278.243C325.239 281.95 321.702 286.836 314.628 292.902C307.89 298.967 302.332 302 297.952 302C293.91 302 290.709 300.484 288.351 297.451C286.33 294.081 282.624 287.51 277.234 277.738C263.085 252.801 255.674 240.333 255 240.333L252.473 241.85C246.41 253.981 238.83 266.617 229.734 279.76C220.975 292.902 214.574 299.473 210.532 299.473C206.826 299.473 201.268 296.777 193.856 291.385C186.445 285.657 182.739 280.939 182.739 277.232Z" fill="white"/>
</svg>
