<svg width="514" height="514" viewBox="0 0 514 514" fill="none" xmlns="http://www.w3.org/2000/svg">
<path d="M495.636 45.834H16.5113C15.2624 45.8334 14.0257 46.0789 12.8718 46.5564C11.7179 47.0339 10.6693 47.7341 9.78605 48.6169C8.90279 49.4998 8.20213 50.548 7.72409 51.7017C7.24605 52.8554 7 54.092 7 55.3408V86.3111C7 87.56 7.24605 88.7966 7.72409 89.9503C8.20213 91.104 8.90279 92.1522 9.78605 93.0351C10.6693 93.9179 11.7179 94.6181 12.8718 95.0956C14.0257 95.5731 15.2624 95.8186 16.5113 95.818H495.636C498.631 95.818 501.503 94.6283 503.621 92.5106C505.739 90.3929 506.929 87.5207 506.929 84.5258V57.1261C506.929 54.1313 505.739 51.2591 503.621 49.1414C501.503 47.0237 498.631 45.834 495.636 45.834Z" fill="#1D1D1B"/>
<path fill-rule="evenodd" clip-rule="evenodd" d="M77.2827 357.513C77.2832 360.851 78.2087 364.123 79.9565 366.966C81.7043 369.81 84.206 372.113 87.1838 373.62L247.741 454.801C250.601 456.247 253.76 457 256.965 457C260.169 457 263.328 456.247 266.188 454.801L426.745 373.62C429.723 372.113 432.225 369.81 433.973 366.966C435.721 364.123 436.646 360.851 436.646 357.513V45.834H77.2827V357.513ZM283.252 267.441L256.964 198.395L230.676 267.441L156.89 271.105L214.431 317.443L195.117 388.749L256.964 348.342L318.812 388.749L299.497 317.443L357.038 271.105L283.252 267.441ZM166.397 103.17H347.532C352.782 103.17 357.038 107.426 357.038 112.677V142.181C357.038 147.431 352.782 151.687 347.532 151.687H166.397C161.146 151.687 156.89 147.431 156.89 142.181V112.677C156.89 107.426 161.146 103.17 166.397 103.17Z" fill="#FE5F5F"/>
<rect x="0.5" y="0.5" width="513" height="513" stroke="black"/>
</svg>
